<svg id="Layer_1" data-name="Layer 1" xmlns="http://www.w3.org/2000/svg" viewBox="0 0 674.43 582"><defs><style>.cls-1{fill:#ffc4bb;}.cls-2{fill:#2f2e41;}.cls-3{fill:#225aff;}.cls-4{fill:#e6e6e6;}.cls-5{fill:#fff;}.cls-6{fill:#3f3d56;}.cls-7{fill:#baffff;}</style></defs><path class="cls-1" d="M266.73,398.38a10.66,10.66,0,0,0-.33,1.79l-48.28,25.35-11.21-7.06L194,434l18.63,14.43a8.81,8.81,0,0,0,10.56.16l50.19-36.47A11.54,11.54,0,1,0,267.2,397a10.93,10.93,0,0,0-.47,1.36Z" transform="translate(-109.43)"/><polygon class="cls-1" points="215.51 570.18 225.19 563.96 205.79 523.66 191.5 532.85 215.51 570.18"/><path class="cls-2" d="M320.44,568.61l19.06-12.26h0a14.45,14.45,0,0,1,20,4.34l.26.39L328.5,581.15Z" transform="translate(-109.43)"/><path class="cls-2" d="M185.47,501l74.31-47.58s13.65-1.31,21.84,14.83l49.49,71.09L310,553.59l-54.92-57L217.4,533.84s55.52-9.11,53.64,27.5c-1.49,29.06-77.47,19.09-108.78,13.74a41,41,0,0,1-28.76-19.69c-3.36-5.82-5.16-12.44-2.34-18.69C138.68,520,185.47,501,185.47,501Z" transform="translate(-109.43)"/><path class="cls-3" d="M148.63,540.72l-21.41-4.33,6.1-105.11L158,401.1l14.68-2.59a17.73,17.73,0,0,1,20.29,12.84L199.4,435c11,18.59-4.4,40.15-5.82,42.06l.8,32.6Z" transform="translate(-109.43)"/><path class="cls-3" d="M168.57,405.22l1.36-4.81s14.75-10.86,37.28,17.3L196.41,437,172.94,436Z" transform="translate(-109.43)"/><path class="cls-2" d="M202.49,367.82c4.18,17.12-12.29,18.39-31.82,23.16s-34.73,11.22-38.91-5.91-3.85-49.36,23.78-56.1C184.13,322,198.31,350.69,202.49,367.82Z" transform="translate(-109.43)"/><circle class="cls-1" cx="55.31" cy="367.18" r="24.5"/><path class="cls-2" d="M136.68,371.55h0l9.41-2.29,1.31-12.64L151.07,368l4.5-1.09.77-7.38,2.14,6.67,33.42-8.16h0a25.92,25.92,0,0,0-31.33-19l-4.85,1.18a25.92,25.92,0,0,0-19,31.33Z" transform="translate(-109.43)"/><path class="cls-1" d="M206.69,488.31a10.62,10.62,0,0,0-1.72.6l-46-29.36.58-13.24-19.86-3.47-3.3,23.33a8.81,8.81,0,0,0,5.1,9.25l56.55,25.51a11.54,11.54,0,1,0,10-12.89A11,11,0,0,0,206.69,488.31Z" transform="translate(-109.43)"/><path class="cls-3" d="M161.68,405.9l-3.47-4.36s-13.9-4.48-21.41,14.29-.47,37.08-.47,37.08l32.86,2.82,2.34-30.51Z" transform="translate(-109.43)"/><polygon class="cls-4" points="417.86 130.68 674.43 130.68 674.43 214.91 664.72 214.91 664.72 236.94 642.69 214.91 417.86 214.91 417.86 130.68"/><rect class="cls-5" x="424.98" y="138.89" width="242.32" height="67.38"/><rect class="cls-3" x="444.47" y="158.56" width="116.67" height="3.54"/><rect class="cls-4" x="444.47" y="170.81" width="203.35" height="3.54"/><rect class="cls-4" x="444.47" y="183.06" width="203.15" height="3.54"/><polygon class="cls-4" points="521.08 0 264.5 0 264.5 84.23 274.22 84.23 274.22 106.26 296.25 84.23 521.08 84.23 521.08 0"/><rect class="cls-5" x="271.63" y="8.2" width="242.32" height="67.38"/><rect class="cls-3" x="293.06" y="28.52" width="116.67" height="3.54"/><rect class="cls-4" x="293.06" y="40.77" width="203.35" height="3.54"/><rect class="cls-4" x="293.06" y="53.02" width="203.15" height="3.54"/><path class="cls-6" d="M312.86,379.65h-.45V367.2a7.2,7.2,0,0,0-7.2-7.2H278.85a7.2,7.2,0,0,0-7.21,7.2h0v68.27a7.21,7.21,0,0,0,7.21,7.2h26.36a7.2,7.2,0,0,0,7.2-7.2h0v-47h.45Z" transform="translate(-109.43)"/><path class="cls-7" d="M304.9,363.64h-3.28a2.44,2.44,0,0,1-2.26,3.37H284.93a2.45,2.45,0,0,1-2.44-2.44,2.48,2.48,0,0,1,.18-.93H279.6a5.14,5.14,0,0,0-5.13,5.14h0v65.11A5.13,5.13,0,0,0,279.6,439h25.3a5.14,5.14,0,0,0,5.14-5.13h0V368.78a5.14,5.14,0,0,0-5.14-5.14Z" transform="translate(-109.43)"/><polygon class="cls-5" points="489.08 248.55 174.01 248.55 174.01 351.98 185.95 351.98 185.95 379.03 213 351.98 489.08 351.98 489.08 248.55"/><path class="cls-6" d="M294.38,381.44V353H282.44V247.55H599.51V353H322.84ZM284.44,351h11.94v25.64L322,351h275.5V249.55H284.44Z" transform="translate(-109.43)"/><rect class="cls-3" x="209.08" y="283.57" width="143.27" height="4.35"/><rect class="cls-4" x="209.08" y="298.62" width="249.7" height="4.35"/><rect class="cls-4" x="209.08" y="313.66" width="249.46" height="4.35"/><path class="cls-6" d="M491.43,582h-381a1,1,0,0,1,0-2h381a1,1,0,1,1,0,2Z" transform="translate(-109.43)"/></svg>